<?xml version="1.0" standalone="no"?><!DOCTYPE svg PUBLIC "-//W3C//DTD SVG 1.1//EN" "http://www.w3.org/Graphics/SVG/1.1/DTD/svg11.dtd"><svg t="1680758886829" class="icon" viewBox="0 0 1024 1024" version="1.1" xmlns="http://www.w3.org/2000/svg" p-id="1293" width="16" height="16" xmlns:xlink="http://www.w3.org/1999/xlink"><path d="M512 739.7376c-125.5168 0-227.7376-102.2208-227.7376-227.7376 0-125.5168 102.2208-227.7376 227.7376-227.7376 125.5168 0 227.7376 102.2208 227.7376 227.7376 0 125.5168-102.2208 227.7376-227.7376 227.7376z m0-409.9328c-100.1984 0-182.1952 81.9968-182.1952 182.1952s81.9968 182.1952 182.1952 182.1952 182.1952-81.9968 182.1952-182.1952-81.9968-182.1952-182.1952-182.1952zM535.296 96h-45.568v128.5376h45.568V96zM535.296 800.4608h-45.568v128.5376h45.568v-128.512zM929.024 489.728h-128.5632v45.568h128.5376v-45.568zM224.5376 489.728H96v45.568h128.5376v-45.568zM791.0144 201.728l-90.9056 90.88 32.2048 32.2304 90.88-90.88L791.04 201.728zM292.8896 699.648l-90.88 90.9056 32.2048 32.2048 90.88-90.88-32.2048-32.2048zM234.2912 201.6512L202.0864 233.856l90.88 90.88 32.2304-32.2048-90.88-90.88zM732.2368 699.7504l-32.2304 32.2048 90.9056 90.88 32.2048-32.1792-90.88-90.88z" fill="#000000" p-id="1294"></path></svg>