<?xml version="1.0" standalone="no"?><!DOCTYPE svg PUBLIC "-//W3C//DTD SVG 1.1//EN" "http://www.w3.org/Graphics/SVG/1.1/DTD/svg11.dtd"><svg t="1681297037451" class="icon" viewBox="0 0 1024 1024" version="1.1" xmlns="http://www.w3.org/2000/svg" p-id="1293" width="16" height="16" xmlns:xlink="http://www.w3.org/1999/xlink"><path d="M972.8 489.9072h-187.008l124.2112-124.2112-50.2528-48.8448-173.056 173.056h-127.0016v-106.0608l177.2544-177.2544-50.2528-48.8448-127.0016 127.0016V76.8h-69.7856v207.9488l-127.0016-127.0016-48.8448 48.8448 175.872 177.2544v106.0608h-127.0272l-173.056-173.056-48.8448 48.8448 124.2112 124.2112H76.8v69.7856h193.9968l-129.792 129.792 48.8448 50.2528 180.0448-180.0448h120.0128v140.9536l-175.872 175.872 48.8704 50.2272 127.0016-127.0016V972.8h69.7856v-173.056l127.0016 126.976 50.2528-50.2272-177.2544-175.8464v-140.9536h121.4208l178.6368 180.0448 50.2528-50.2528-131.2-129.792H972.8v-69.7856z" fill="#000000" p-id="1294"></path></svg>