<?xml version="1.0" standalone="no"?><!DOCTYPE svg PUBLIC "-//W3C//DTD SVG 1.1//EN" "http://www.w3.org/Graphics/SVG/1.1/DTD/svg11.dtd"><svg t="1681304141919" class="icon" viewBox="0 0 1024 1024" version="1.1" xmlns="http://www.w3.org/2000/svg" p-id="4013" xmlns:xlink="http://www.w3.org/1999/xlink" width="16" height="16"><path d="M511.98464 1024C229.241123 1024 0 794.758877 0 512.01536v-127.996161l255.99232 255.992321H150.587482A383.839151 383.839151 0 0 0 447.98656 889.540034V576.01344h-63.99808a63.99808 63.99808 0 1 1 0-127.996161h63.99808v-75.773726c-74.429767-26.431207-127.99616-96.701099-127.99616-180.218594C319.9904 94.811876 392.500225 15.32626 486.193414 2.65464a126.822862 126.822862 0 0 1 51.582453 0C631.469056 15.32626 703.978881 94.811876 703.978881 192.024959c0 83.517494-53.630391 153.787386-127.99616 180.218594V448.017279h63.99808c35.390938 0 63.99808 28.607142 63.99808 63.998081s-28.607142 63.99808-63.99808 63.99808h-63.99808v313.526594A383.860484 383.860484 0 0 0 873.381799 640.01152H767.976961l255.99232-255.992321v127.996161c0 282.743518-229.241123 511.98464-511.984641 511.98464z m0-895.973121a63.99808 63.99808 0 1 0 0 127.99616 63.99808 63.99808 0 1 0 0-127.99616z" p-id="4014"></path></svg>