<?xml version="1.0" standalone="no"?><!DOCTYPE svg PUBLIC "-//W3C//DTD SVG 1.1//EN" "http://www.w3.org/Graphics/SVG/1.1/DTD/svg11.dtd"><svg t="1681297271245" class="icon" viewBox="0 0 1024 1024" version="1.1" xmlns="http://www.w3.org/2000/svg" p-id="1780" xmlns:xlink="http://www.w3.org/1999/xlink" width="16" height="16"><path d="M830.928 631.472c-42.656 21.328-90.656 33.056-138.656 33.056H691.2c-173.872 0-315.728-141.856-315.728-315.728 0-48 10.656-96 33.056-139.728 3.2-6.4 3.2-13.872 0-20.272-3.2-5.328-7.456-9.6-12.8-11.728C392.528 176 390.4 176 387.2 176s-6.4 1.072-9.6 2.128C252.8 240 176 363.728 176 502.4c0 97.072 37.328 187.728 105.6 256 68.272 68.272 158.928 105.6 256 105.6h1.072c136.528 0 263.456-78.928 323.2-201.6 3.2-6.4 3.2-13.872 0-20.272-5.344-10.656-19.2-16-30.944-10.656z m-60.8 85.328c-4.256 5.328-9.6 9.6-13.856 13.872C695.472 788.272 617.6 816 539.728 816c-84.256 0-168.528-33.072-230.4-99.2-119.456-128-113.056-327.472 13.872-446.928l18.128-17.072L336 277.328c-9.6 46.944-9.6 96 0 142.944C370.128 592 521.6 710.4 690.128 710.4c23.472 0 48-2.128 71.472-7.472l24.528-5.328-16 19.2z" fill="#2c2c2c" p-id="1781"></path></svg>